#define schoenebeck_width 320
#define schoenebeck_height 170
static unsigned char schoenebeck_bits[] = {
   0xff, 0xfd, 0xfe, 0xff, 0x03, 0x00, 0x00, 0x00, 0x00, 0x00, 0x00, 0x00,
   0x00, 0x00, 0x00, 0x00, 0x00, 0x00, 0x00, 0x00, 0x00, 0x00, 0x00, 0x00,
   0x00, 0x00, 0x00, 0x00, 0x00, 0x00, 0x00, 0x00, 0x80, 0xff, 0x0f, 0x00,
   0x00, 0x00, 0x80, 0xff, 0x5f, 0xab, 0xff, 0xff, 0x07, 0x00, 0x00, 0x00,
   0x00, 0x00, 0x00, 0x00, 0x00, 0x00, 0x00, 0x00, 0x00, 0x00, 0x00, 0x00,
   0x00, 0x00, 0x00, 0x00, 0x00, 0x00, 0x00, 0x00, 0x00, 0x00, 0x00, 0x00,
   0x80, 0xff, 0x0f, 0x00, 0x00, 0x00, 0x80, 0xff, 0xff, 0x76, 0xbf, 0xfe,
   0x03, 0x00, 0x00, 0x00, 0x00, 0x00, 0x00, 0x00, 0x00, 0x00, 0x00, 0x00,
   0x00, 0x00, 0x00, 0x00, 0x00, 0x00, 0x00, 0x00, 0x00, 0x00, 0x00, 0x00,
   0x00, 0x00, 0x00, 0x00, 0xc0, 0xff, 0x0f, 0x00, 0x00, 0x00, 0x80, 0xff,
   0xaf, 0xd6, 0xef, 0xfa, 0x05, 0x00, 0x00, 0x00, 0x00, 0x00, 0x00, 0x00,
   0x00, 0x00, 0x00, 0x00, 0x00, 0x00, 0x00, 0x00, 0x00, 0x00, 0x00, 0x00,
   0x00, 0x00, 0x00, 0x00, 0x00, 0x00, 0x00, 0x00, 0xc0, 0xbf, 0x0f, 0x00,
   0x00, 0x00, 0xe0, 0xff, 0xfb, 0xbd, 0xdf, 0xff, 0x07, 0x00, 0x00, 0x00,
   0x00, 0x00, 0x00, 0x00, 0x00, 0x00, 0x00, 0x00, 0x00, 0x00, 0x00, 0x00,
   0x00, 0x00, 0x00, 0x00, 0x00, 0x00, 0x00, 0x00, 0x00, 0x00, 0x00, 0x00,
   0xc0, 0xff, 0x0f, 0x00, 0x00, 0x00, 0xfe, 0xff, 0x5f, 0x6b, 0x5d, 0xd5,
   0x07, 0x00, 0x00, 0x00, 0x00, 0x00, 0x00, 0x00, 0x00, 0x00, 0x00, 0x00,
   0x00, 0x00, 0x00, 0x00, 0x00, 0x00, 0x00, 0x00, 0x00, 0x00, 0x00, 0x00,
   0x00, 0x00, 0x00, 0x00, 0xc0, 0xef, 0x0e, 0x00, 0x00, 0x80, 0xff, 0xff,
   0xdf, 0xb6, 0xf7, 0xf6, 0x0f, 0x00, 0x00, 0x00, 0x00, 0x00, 0x00, 0x00,
   0x00, 0x00, 0x00, 0x00, 0x00, 0x00, 0x00, 0x00, 0x00, 0x00, 0x00, 0x00,
   0x00, 0x00, 0x00, 0x00, 0x00, 0x00, 0x00, 0x00, 0xc0, 0xbf, 0x03, 0x00,
   0x00, 0xf0, 0xff, 0xf3, 0xbb, 0xed, 0xaf, 0xfd, 0x0d, 0x00, 0x00, 0x00,
   0x00, 0x00, 0x00, 0x00, 0x00, 0x00, 0x00, 0x00, 0x00, 0x00, 0x00, 0x00,
   0x00, 0x00, 0x00, 0x00, 0x00, 0x00, 0x00, 0x00, 0x00, 0x00, 0x00, 0x00,
   0xc0, 0xff, 0x07, 0x00, 0x00, 0xfe, 0xff, 0xe3, 0xdf, 0xb6, 0xf7, 0xd6,
   0x0f, 0x00, 0x00, 0x00, 0x00, 0x00, 0x00, 0x00, 0x00, 0x00, 0x00, 0x00,
   0x00, 0x00, 0x00, 0x00, 0x00, 0x00, 0x00, 0x00, 0x00, 0x00, 0x00, 0x00,
   0x00, 0x00, 0x00, 0x00, 0x80, 0x7f, 0x03, 0x00, 0x80, 0xff, 0xff, 0xeb,
   0xdf, 0x6e, 0xaf, 0xb5, 0x1b, 0x00, 0x00, 0x00, 0x00, 0x00, 0x00, 0x00,
   0x00, 0x00, 0x00, 0x00, 0x00, 0x00, 0x00, 0x00, 0x00, 0x00, 0x00, 0x00,
   0x00, 0x00, 0x00, 0x00, 0x00, 0x00, 0x00, 0x00, 0x80, 0xef, 0x01, 0x00,
   0xe0, 0xff, 0xff, 0xff, 0xbf, 0xf5, 0x7e, 0xef, 0x0f, 0x00, 0x00, 0x00,
   0x00, 0x00, 0x00, 0x00, 0x00, 0x00, 0x00, 0x00, 0x00, 0x00, 0x00, 0x00,
   0x00, 0x00, 0x00, 0x00, 0x00, 0x00, 0x00, 0x00, 0x00, 0x00, 0x00, 0x00,
   0x80, 0xbf, 0x03, 0x00, 0xff, 0xff, 0xff, 0xff, 0x7f, 0xd7, 0xd7, 0xda,
   0x0d, 0x00, 0x00, 0x00, 0x00, 0x00, 0x00, 0x00, 0x00, 0x00, 0x00, 0x00,
   0x00, 0x00, 0x00, 0x00, 0x00, 0x00, 0x00, 0x00, 0x00, 0x00, 0x00, 0x00,
   0x00, 0x00, 0x00, 0x00, 0x00, 0x7f, 0x01, 0xc0, 0xff, 0xff, 0xff, 0xff,
   0xdf, 0xda, 0x6e, 0x7f, 0x1f, 0x00, 0x00, 0x00, 0x00, 0x00, 0x00, 0x00,
   0x00, 0x00, 0x00, 0x00, 0x00, 0x00, 0x00, 0x00, 0x00, 0x00, 0x00, 0x00,
   0x00, 0x00, 0x00, 0x00, 0x00, 0x00, 0x00, 0x00, 0x00, 0xff, 0x03, 0xf0,
   0xff, 0xff, 0xff, 0xff, 0xbf, 0xdb, 0x6f, 0xfd, 0x1b, 0x00, 0x00, 0x00,
   0x00, 0x00, 0x00, 0x00, 0x00, 0x00, 0x00, 0x00, 0x00, 0x00, 0x00, 0x00,
   0x00, 0x00, 0x00, 0x00, 0x00, 0x00, 0x00, 0x00, 0x00, 0x00, 0x00, 0x00,
   0x00, 0x5f, 0x01, 0xf8, 0xff, 0xff, 0xff, 0xff, 0x7d, 0x6d, 0xdf, 0x6d,
   0x3f, 0x00, 0x00, 0x00, 0x00, 0x00, 0x00, 0x00, 0x00, 0x00, 0x00, 0x00,
   0x00, 0x00, 0x00, 0x00, 0x00, 0x00, 0x00, 0x00, 0x00, 0x00, 0x00, 0x00,
   0x00, 0x00, 0x00, 0x00, 0x00, 0xfb, 0x03, 0xff, 0xff, 0xff, 0xff, 0xff,
   0xbd, 0xdb, 0x55, 0xff, 0x2a, 0x00, 0x00, 0x00, 0x00, 0x00, 0x00, 0x00,
   0x00, 0x00, 0x00, 0x00, 0x00, 0x00, 0x00, 0x00, 0x00, 0x00, 0x00, 0x00,
   0x00, 0x00, 0x00, 0x00, 0x00, 0x00, 0x00, 0x00, 0x00, 0xbf, 0xc2, 0xff,
   0xff, 0xff, 0xff, 0x08, 0xfb, 0x76, 0xdf, 0xf6, 0x2f, 0x00, 0x00, 0x00,
   0x00, 0x00, 0x00, 0x00, 0x00, 0x00, 0x00, 0x00, 0x00, 0x00, 0x00, 0x00,
   0x00, 0x00, 0x00, 0x00, 0x00, 0x00, 0x00, 0x00, 0x00, 0x00, 0x00, 0x00,
   0x00, 0xdf, 0xff, 0xff, 0xff, 0xff, 0x7f, 0x07, 0x7b, 0xd5, 0x55, 0x5d,
   0x2d, 0x00, 0x00, 0x00, 0x00, 0x00, 0x00, 0x00, 0x00, 0x00, 0x00, 0x00,
   0x00, 0x00, 0x00, 0x00, 0x00, 0x00, 0x00, 0x00, 0x00, 0x00, 0x00, 0x00,
   0x00, 0x00, 0x00, 0x00, 0x00, 0xbd, 0xfe, 0xff, 0xff, 0xff, 0x7f, 0x00,
   0xd7, 0x76, 0xbf, 0xf5, 0x2d, 0x00, 0x00, 0x00, 0x00, 0x00, 0x00, 0x00,
   0x00, 0x00, 0x00, 0x00, 0x00, 0x00, 0x00, 0x00, 0x00, 0x00, 0x00, 0x00,
   0x00, 0x00, 0x00, 0x00, 0x00, 0x00, 0x00, 0x00, 0x00, 0xff, 0xff, 0xff,
   0xff, 0xff, 0x0b, 0x10, 0xdd, 0xd6, 0x6b, 0x7b, 0x29, 0x00, 0x00, 0x00,
   0x00, 0x00, 0x00, 0x00, 0x00, 0x00, 0x00, 0x00, 0x00, 0x00, 0x00, 0x00,
   0x00, 0x00, 0x00, 0x00, 0x00, 0x00, 0x00, 0x00, 0x00, 0x00, 0x00, 0x00,
   0x00, 0xbf, 0xff, 0xff, 0xff, 0xff, 0x06, 0x00, 0xb7, 0xed, 0xb6, 0x6e,
   0x15, 0x00, 0x00, 0x00, 0x00, 0x00, 0x00, 0x00, 0x00, 0x00, 0x00, 0x00,
   0x00, 0x00, 0x00, 0x00, 0x00, 0x00, 0x00, 0x00, 0x00, 0x00, 0x00, 0x00,
   0x00, 0x00, 0x00, 0x00, 0x00, 0xf7, 0xfe, 0xff, 0xff, 0x8b, 0x80, 0x20,
   0x76, 0xdb, 0xd7, 0x5a, 0x55, 0x00, 0x00, 0x00, 0x00, 0x00, 0x00, 0x00,
   0x00, 0x00, 0x00, 0x00, 0x00, 0x00, 0x00, 0x00, 0xc0, 0x00, 0x00, 0x00,
   0x00, 0x00, 0x00, 0x00, 0x00, 0x00, 0x00, 0x00, 0x80, 0xff, 0xff, 0xff,
   0xbf, 0x0a, 0x00, 0x02, 0xdb, 0x6a, 0xbf, 0x55, 0x25, 0x00, 0x00, 0x00,
   0x00, 0x00, 0x00, 0x00, 0x00, 0x00, 0x00, 0x00, 0x00, 0x00, 0x00, 0x00,
   0xe0, 0x00, 0x00, 0x00, 0x00, 0x00, 0x00, 0x00, 0x00, 0x00, 0x00, 0x00,
   0xf8, 0xef, 0xff, 0xff, 0x7f, 0x01, 0x10, 0x00, 0xde, 0xee, 0x5a, 0x5d,
   0x0a, 0x00, 0x00, 0x00, 0x00, 0x00, 0x00, 0x00, 0x00, 0x00, 0x00, 0x00,
   0x00, 0x00, 0x00, 0x00, 0xf0, 0x01, 0x00, 0x00, 0x00, 0x00, 0x00, 0x00,
   0x00, 0x00, 0x00, 0x00, 0xbc, 0x7e, 0xff, 0xff, 0x7f, 0x90, 0x00, 0x00,
   0x6b, 0xab, 0xb7, 0xab, 0x0a, 0x00, 0x00, 0x00, 0x00, 0x00, 0x00, 0x00,
   0x00, 0x00, 0x00, 0x00, 0x00, 0x00, 0x00, 0x00, 0xf0, 0x03, 0x00, 0x00,
   0x00, 0x00, 0x00, 0x00, 0x00, 0x00, 0x00, 0x00, 0xff, 0xef, 0xff, 0xff,
   0x06, 0x00, 0x24, 0x08, 0xdd, 0xf6, 0xad, 0xaa, 0x2a, 0x00, 0x00, 0x00,
   0x00, 0x00, 0x00, 0x00, 0x00, 0x00, 0x00, 0x00, 0x00, 0x00, 0x00, 0x00,
   0xf8, 0x07, 0x00, 0x00, 0x00, 0x00, 0x00, 0x00, 0x00, 0x00, 0x00, 0x00,
   0xff, 0xbf, 0xfe, 0xaf, 0x01, 0x02, 0x55, 0x00, 0x6b, 0xab, 0x77, 0x5b,
   0x01, 0x00, 0x00, 0x00, 0x00, 0x00, 0x00, 0x00, 0x00, 0x00, 0x00, 0x00,
   0x00, 0x00, 0x00, 0x00, 0xf8, 0x07, 0x00, 0x00, 0x00, 0x00, 0x00, 0x00,
   0x00, 0x00, 0x00, 0x80, 0xfe, 0xfb, 0x7b, 0x5b, 0x20, 0x68, 0x15, 0x00,
   0xde, 0xbe, 0xd6, 0xaa, 0x16, 0x00, 0x00, 0x00, 0x00, 0x00, 0x00, 0x00,
   0x00, 0x00, 0x00, 0x00, 0x00, 0x00, 0x00, 0x00, 0xfc, 0x0f, 0x00, 0x00,
   0x00, 0x00, 0x00, 0x00, 0x00, 0x00, 0x00, 0x80, 0xff, 0xbf, 0x7f, 0x2b,
   0x40, 0x48, 0x35, 0x80, 0xb5, 0xd5, 0xb7, 0x5d, 0x43, 0x00, 0x00, 0x00,
   0x00, 0x00, 0x00, 0x00, 0x00, 0x00, 0x00, 0x00, 0x00, 0x00, 0x00, 0x00,
   0xfc, 0x0f, 0x00, 0x00, 0x00, 0x00, 0x00, 0x00, 0x00, 0x00, 0x00, 0xc0,
   0xff, 0xff, 0xbf, 0x02, 0x01, 0x50, 0x25, 0xc0, 0x6e, 0xbb, 0x56, 0x5b,
   0x0e, 0x00, 0x00, 0x00, 0x00, 0x00, 0x00, 0x00, 0x00, 0x00, 0x00, 0x00,
   0x00, 0x00, 0x00, 0x00, 0xfc, 0x0f, 0x00, 0x00, 0x00, 0x00, 0x00, 0x00,
   0x00, 0x00, 0x00, 0xc0, 0x7f, 0xff, 0x7f, 0x01, 0x04, 0xa0, 0xca, 0xfe,
   0xb5, 0x6d, 0xad, 0x5d, 0x0d, 0x00, 0x00, 0x00, 0x00, 0x00, 0x00, 0x00,
   0x00, 0x00, 0x00, 0x00, 0x00, 0x00, 0x00, 0x00, 0xf8, 0x1f, 0x00, 0x00,
   0x00, 0x00, 0x00, 0x00, 0x00, 0x00, 0x00, 0xf0, 0xff, 0xff, 0x3f, 0x00,
   0x00, 0x50, 0x55, 0xfe, 0x6f, 0xdb, 0x7b, 0xdb, 0x2a, 0x00, 0x00, 0x00,
   0x00, 0x00, 0x00, 0x00, 0x00, 0x00, 0x00, 0x00, 0x00, 0x00, 0x00, 0x00,
   0xf0, 0x0f, 0x00, 0x00, 0x00, 0x00, 0x00, 0x00, 0x00, 0x00, 0x00, 0xf0,
   0xff, 0xff, 0x3f, 0x60, 0x05, 0x50, 0xd5, 0xff, 0xda, 0xb6, 0x56, 0x57,
   0x1d, 0x00, 0x00, 0x00, 0x00, 0x00, 0x00, 0x00, 0x00, 0x00, 0x00, 0x00,
   0x00, 0x00, 0x00, 0x00, 0xf8, 0x0f, 0x00, 0x00, 0x00, 0x00, 0x00, 0x00,
   0x00, 0x00, 0x00, 0xf8, 0xaf, 0xff, 0x3f, 0x48, 0x01, 0x90, 0x94, 0xff,
   0xb6, 0xed, 0xae, 0x5e, 0x15, 0x00, 0x00, 0x00, 0x00, 0x00, 0x00, 0x00,
   0x00, 0x00, 0x00, 0x00, 0x00, 0x00, 0x00, 0x00, 0xfc, 0x0f, 0x00, 0x00,
   0x00, 0x00, 0x00, 0x00, 0x00, 0x00, 0x00, 0xfc, 0xdb, 0xff, 0x3f, 0x5a,
   0x02, 0x28, 0xe9, 0xff, 0x6d, 0x5b, 0x77, 0x55, 0x35, 0x00, 0x00, 0x00,
   0x00, 0x00, 0x00, 0x00, 0x00, 0x00, 0x00, 0x00, 0x00, 0x00, 0x00, 0x00,
   0xfe, 0x1f, 0x00, 0x00, 0x00, 0x00, 0x00, 0x00, 0x00, 0x00, 0x00, 0xfc,
   0xf7, 0xff, 0x1f, 0xa4, 0xc2, 0xab, 0x92, 0xff, 0x6d, 0xfb, 0x57, 0xbf,
   0x0a, 0x00, 0x00, 0x00, 0x00, 0x00, 0x00, 0x00, 0x00, 0x00, 0x00, 0x00,
   0x00, 0x00, 0x00, 0x00, 0xfe, 0x1f, 0x00, 0x00, 0x00, 0x00, 0x00, 0x00,
   0x00, 0x00, 0x00, 0x5e, 0x0d, 0xff, 0x3f, 0x48, 0xfd, 0xab, 0x6a, 0xff,
   0xdb, 0xae, 0xdf, 0xaa, 0x35, 0x00, 0x00, 0x00, 0x00, 0x00, 0x00, 0x00,
   0x00, 0x00, 0x00, 0x00, 0x00, 0x00, 0x00, 0x00, 0xfe, 0x3f, 0x00, 0x00,
   0x00, 0x00, 0x00, 0x00, 0x00, 0x00, 0x00, 0xee, 0xd2, 0xff, 0x3f, 0x54,
   0xfd, 0x4b, 0x12, 0xfc, 0xdb, 0x7a, 0xbd, 0x5e, 0x05, 0x00, 0x00, 0x00,
   0x00, 0x00, 0x00, 0x00, 0x00, 0x00, 0x00, 0x00, 0x00, 0x00, 0x00, 0x00,
   0xfe, 0x3f, 0x00, 0x00, 0x00, 0x00, 0x00, 0x00, 0x00, 0x00, 0x00, 0xac,
   0x04, 0xff, 0x3f, 0x94, 0xfe, 0x99, 0x54, 0xfe, 0x6d, 0xef, 0xdf, 0xb6,
   0x2e, 0x00, 0x00, 0x00, 0x00, 0x00, 0x00, 0x00, 0x00, 0x00, 0x00, 0x00,
   0x00, 0x00, 0x00, 0x00, 0xff, 0x7f, 0x00, 0x00, 0x00, 0x00, 0x00, 0x00,
   0x00, 0x00, 0x00, 0x38, 0xa9, 0xfe, 0x7f, 0x50, 0xfe, 0xa7, 0x92, 0xfe,
   0x6d, 0xdd, 0xba, 0xbe, 0x14, 0x00, 0x00, 0x00, 0x00, 0x00, 0x00, 0x00,
   0x00, 0x00, 0x00, 0x00, 0x00, 0x00, 0x00, 0x00, 0xff, 0x7f, 0x00, 0x00,
   0x00, 0x00, 0x00, 0x00, 0x00, 0x00, 0x00, 0x42, 0x82, 0xff, 0xff, 0x95,
   0xe0, 0xa0, 0xaa, 0xff, 0xb7, 0xfb, 0xdf, 0xaa, 0x16, 0x00, 0x00, 0x00,
   0x00, 0x00, 0x00, 0x00, 0x00, 0x00, 0x00, 0x00, 0x00, 0x00, 0x00, 0x00,
   0xff, 0xff, 0x03, 0x00, 0x00, 0x00, 0x00, 0x00, 0x00, 0x00, 0x00, 0x98,
   0x14, 0xff, 0xff, 0x53, 0xff, 0x40, 0x92, 0xff, 0xed, 0x5e, 0xbd, 0x5e,
   0x2d, 0x00, 0x00, 0x00, 0x00, 0x00, 0x00, 0x00, 0x00, 0x00, 0x00, 0x00,
   0x00, 0x00, 0x00, 0x80, 0xff, 0xff, 0x07, 0x00, 0x00, 0x00, 0x00, 0x00,
   0x00, 0x80, 0x04, 0xb2, 0x22, 0xff, 0xff, 0xff, 0xff, 0x52, 0xd5, 0xff,
   0xb7, 0xf5, 0xff, 0xaa, 0x5a, 0x00, 0x00, 0x00, 0x00, 0x00, 0x00, 0x00,
   0x00, 0x00, 0x00, 0x00, 0x00, 0x00, 0x00, 0x80, 0xff, 0xff, 0x07, 0x00,
   0x00, 0x00, 0x00, 0x00, 0x00, 0x80, 0xa8, 0xad, 0x95, 0xff, 0xff, 0xff,
   0xff, 0x90, 0xd4, 0xff, 0x5d, 0xff, 0x76, 0xaf, 0x15, 0x00, 0x00, 0x00,
   0x00, 0x00, 0x00, 0x00, 0x00, 0x00, 0x00, 0x00, 0x00, 0x00, 0x00, 0xc0,
   0xb5, 0xff, 0x07, 0x00, 0x00, 0x00, 0x00, 0x00, 0x00, 0x80, 0x02, 0x54,
   0xe1, 0xff, 0xff, 0xff, 0xff, 0x22, 0xa5, 0xfe, 0xeb, 0xee, 0xff, 0x5a,
   0x2d, 0x00, 0x00, 0x00, 0x00, 0x00, 0x00, 0x00, 0x00, 0x00, 0x00, 0x00,
   0x00, 0x00, 0x00, 0x80, 0x42, 0x2a, 0x0a, 0x00, 0x00, 0x00, 0x00, 0x00,
   0x00, 0x60, 0x08, 0xab, 0xf6, 0xff, 0xff, 0xff, 0xff, 0x50, 0x49, 0xfe,
   0xaf, 0xfd, 0xd6, 0x5b, 0x1b, 0x00, 0x00, 0x00, 0x00, 0x00, 0x00, 0x00,
   0x00, 0x00, 0x00, 0x00, 0x00, 0x00, 0x00, 0x60, 0x94, 0x80, 0x04, 0x00,
   0x00, 0x00, 0x00, 0x00, 0x00, 0xd0, 0x11, 0xac, 0xff, 0xff, 0xff, 0xff,
   0xff, 0x29, 0x55, 0xfb, 0xbd, 0xde, 0x7f, 0x57, 0x2d, 0x00, 0x00, 0x00,
   0x00, 0x00, 0x00, 0x00, 0x00, 0x00, 0x00, 0x00, 0x00, 0x00, 0x00, 0x80,
   0x22, 0x55, 0x0a, 0x00, 0x00, 0x00, 0x00, 0x00, 0x00, 0xa0, 0x04, 0xea,
   0xff, 0xff, 0xff, 0xff, 0xff, 0xa7, 0xa8, 0x6c, 0xeb, 0xfe, 0xfd, 0xae,
   0x1a, 0x00, 0x00, 0x00, 0x00, 0x00, 0x00, 0x00, 0x00, 0x00, 0x00, 0x00,
   0x00, 0x00, 0x00, 0x80, 0x24, 0x8b, 0x00, 0x00, 0x00, 0x00, 0x00, 0x00,
   0x00, 0xa8, 0x40, 0xfe, 0xff, 0xff, 0xff, 0xff, 0xff, 0x4b, 0xab, 0x0a,
   0xdf, 0xdb, 0x57, 0x5b, 0x55, 0x00, 0x00, 0x00, 0x00, 0x00, 0x00, 0x00,
   0x00, 0x00, 0x00, 0x00, 0x00, 0x00, 0x00, 0x00, 0x49, 0x55, 0x05, 0x00,
   0x00, 0x00, 0x00, 0x00, 0x80, 0x15, 0x09, 0xff, 0xff, 0xff, 0xff, 0xff,
   0xff, 0x57, 0xaa, 0x02, 0x5f, 0x7f, 0xff, 0x7f, 0x2d, 0x00, 0x00, 0x00,
   0x00, 0x00, 0x00, 0x00, 0x00, 0x00, 0x00, 0x00, 0x00, 0x00, 0x00, 0x00,
   0x55, 0x57, 0x02, 0x00, 0x00, 0x00, 0x00, 0x00, 0x80, 0x2b, 0x10, 0xff,
   0xff, 0xff, 0xff, 0x7f, 0xff, 0xab, 0x92, 0x02, 0xb7, 0xff, 0x5b, 0x55,
   0x55, 0x00, 0x00, 0x00, 0x00, 0x00, 0x00, 0x0e, 0x00, 0x00, 0x00, 0x00,
   0x00, 0x00, 0x00, 0x00, 0x4b, 0x49, 0x0d, 0x00, 0x00, 0x00, 0x00, 0x00,
   0xe0, 0x85, 0x82, 0xff, 0xff, 0xff, 0xff, 0xff, 0xff, 0xa7, 0xaa, 0x02,
   0x6f, 0xdf, 0xdf, 0xaf, 0x1d, 0x00, 0x00, 0x00, 0x00, 0x00, 0x80, 0x3f,
   0x00, 0x00, 0x00, 0x00, 0x00, 0x00, 0x00, 0x60, 0xd7, 0xfb, 0x7f, 0x00,
   0x00, 0x00, 0x00, 0x00, 0xf8, 0x0b, 0xac, 0xfc, 0xff, 0xff, 0xff, 0xff,
   0xff, 0x4b, 0xaa, 0x00, 0xdf, 0x7f, 0x7b, 0xb5, 0xea, 0x00, 0x00, 0x00,
   0x00, 0x00, 0x80, 0x3f, 0x00, 0x00, 0x00, 0x00, 0x00, 0x00, 0x00, 0xf0,
   0xff, 0xff, 0x7f, 0x00, 0x00, 0x00, 0x00, 0xc0, 0xff, 0x05, 0x55, 0xfd,
   0xff, 0xff, 0xff, 0xff, 0xff, 0x55, 0x25, 0x00, 0x5f, 0xff, 0xef, 0x57,
   0x95, 0x00, 0x00, 0x00, 0x00, 0x00, 0x80, 0x0f, 0x00, 0x00, 0x00, 0x00,
   0x00, 0x00, 0x00, 0xfc, 0xff, 0xff, 0xff, 0x01, 0x00, 0x00, 0x00, 0xc0,
   0xff, 0x11, 0x55, 0xff, 0xff, 0xff, 0xff, 0xff, 0xff, 0x4a, 0x55, 0x00,
   0xff, 0x7d, 0x7f, 0x5b, 0xf5, 0x00, 0x00, 0x00, 0x10, 0x00, 0x80, 0x0f,
   0x00, 0x00, 0x00, 0x00, 0x00, 0x00, 0x00, 0xfe, 0xff, 0xff, 0xff, 0x00,
   0x00, 0x00, 0x00, 0xe0, 0xff, 0x23, 0x55, 0xf9, 0xff, 0xff, 0xff, 0xbf,
   0x3f, 0xa0, 0x54, 0x00, 0xbe, 0xff, 0xfd, 0x6b, 0x4b, 0x00, 0x00, 0x00,
   0x0a, 0x00, 0x00, 0x00, 0x00, 0x00, 0x00, 0x00, 0x00, 0x00, 0x00, 0xfe,
   0xff, 0xff, 0x7f, 0x00, 0x00, 0x00, 0x00, 0xf8, 0xff, 0x07, 0x5e, 0xff,
   0xff, 0xff, 0xff, 0xff, 0x3f, 0x40, 0x55, 0x00, 0xef, 0xff, 0xff, 0xaf,
   0xb6, 0x14, 0x40, 0x05, 0x2a, 0x00, 0x00, 0x00, 0x00, 0x00, 0x00, 0x00,
   0x00, 0x00, 0x00, 0xff, 0xff, 0xff, 0x7f, 0x00, 0x00, 0x00, 0x80, 0xff,
   0xff, 0xca, 0x55, 0xfd, 0xff, 0xff, 0xff, 0xb7, 0x3f, 0x80, 0x12, 0x00,
   0x5f, 0xff, 0xff, 0xb7, 0x2d, 0x51, 0x2b, 0x49, 0x15, 0x00, 0x00, 0x00,
   0x00, 0x00, 0x00, 0x00, 0x00, 0x00, 0x00, 0xff, 0x7f, 0x7d, 0x3f, 0x00,
   0x00, 0x00, 0x80, 0xff, 0xff, 0x5b, 0xdb, 0xfd, 0xff, 0xff, 0xff, 0xfe,
   0x1f, 0x80, 0x6a, 0x00, 0xfb, 0xff, 0xff, 0x6f, 0xbd, 0xaa, 0xa4, 0xaa,
   0xaa, 0x00, 0x00, 0x00, 0x00, 0x00, 0x00, 0x00, 0x00, 0x00, 0x00, 0xff,
   0x4b, 0xab, 0x0d, 0x00, 0x00, 0x00, 0xe4, 0xff, 0xff, 0x75, 0xb5, 0xf2,
   0xff, 0xff, 0xff, 0xf7, 0x1f, 0x40, 0x4a, 0xf0, 0x5f, 0xff, 0xff, 0x57,
   0xbb, 0x84, 0x4a, 0x2a, 0x55, 0x00, 0x00, 0x00, 0x00, 0x00, 0x00, 0x00,
   0x00, 0x00, 0x00, 0xfe, 0x6d, 0xb5, 0x0a, 0x00, 0x00, 0x00, 0xff, 0xff,
   0xbf, 0xd7, 0xae, 0xea, 0xff, 0xff, 0xbf, 0xdf, 0x1f, 0x40, 0xa9, 0xfd,
   0xf5, 0x6d, 0xff, 0x6f, 0xad, 0x2a, 0xa9, 0xaa, 0xaa, 0x0f, 0x00, 0x00,
   0x00, 0x00, 0x00, 0x00, 0x00, 0x00, 0x00, 0x60, 0x5b, 0xd7, 0x0d, 0x00,
   0x00, 0xc0, 0xff, 0xff, 0xff, 0x5a, 0x19, 0xea, 0xff, 0xff, 0xff, 0xf6,
   0x3f, 0x40, 0x55, 0xfe, 0xaf, 0xff, 0xff, 0xab, 0x35, 0x52, 0x4a, 0x52,
   0x55, 0x3d, 0xec, 0x07, 0x3c, 0x0f, 0x00, 0x00, 0x00, 0x00, 0x00, 0xd0,
   0xb7, 0x5a, 0x15, 0x00, 0x00, 0xfc, 0xff, 0xff, 0xff, 0xf7, 0xa2, 0xf4,
   0xff, 0xff, 0xff, 0xdf, 0x3f, 0x50, 0xa5, 0xff, 0xfb, 0xfb, 0xfe, 0xdf,
   0xd6, 0xa4, 0x92, 0xaa, 0xaa, 0xff, 0xff, 0x9f, 0xff, 0x2f, 0x7c, 0x00,
   0x00, 0x00, 0x00, 0x40, 0xd5, 0xaa, 0x1b, 0x00, 0x00, 0xfe, 0xff, 0xff,
   0xff, 0x2e, 0x49, 0x8a, 0xff, 0xff, 0xef, 0xff, 0x3f, 0x90, 0x2a, 0xff,
   0x5b, 0xdf, 0xff, 0xb7, 0xfa, 0x4a, 0xaa, 0x94, 0xaa, 0xff, 0xff, 0xff,
   0xff, 0x7f, 0x7c, 0x00, 0x00, 0x00, 0x00, 0x80, 0xaf, 0xb6, 0x0a, 0x00,
   0x00, 0xfe, 0xff, 0xff, 0xff, 0x25, 0x95, 0x94, 0xff, 0xff, 0xff, 0xff,
   0xff, 0x41, 0xaa, 0xfe, 0xef, 0xfb, 0xfe, 0xd7, 0xed, 0x69, 0xa0, 0xaf,
   0xda, 0xff, 0xff, 0xff, 0xff, 0xff, 0xff, 0x00, 0x00, 0x00, 0x00, 0x00,
   0xda, 0x6a, 0x07, 0x00, 0x00, 0xff, 0xff, 0xff, 0xbf, 0x57, 0x02, 0xea,
   0xff, 0xff, 0xff, 0xff, 0xff, 0xa3, 0x52, 0xfc, 0x5d, 0xff, 0xfb, 0x5f,
   0x55, 0xe5, 0x80, 0xbf, 0xae, 0xfb, 0xff, 0xff, 0xff, 0xff, 0xff, 0x01,
   0x00, 0x00, 0x00, 0xa0, 0xb5, 0xd5, 0x02, 0x00, 0x00, 0xfe, 0xff, 0xff,
   0xfe, 0x4b, 0x0a, 0xd4, 0xff, 0xff, 0xff, 0xff, 0xff, 0x53, 0xd5, 0xf8,
   0xf7, 0xfe, 0xfe, 0xbf, 0xfb, 0x2b, 0x82, 0xed, 0xab, 0xff, 0xff, 0xff,
   0xff, 0xff, 0xff, 0x0f, 0x00, 0x00, 0x00, 0x80, 0xaa, 0xb6, 0x06, 0x00,
   0x00, 0xfe, 0xff, 0xff, 0xfb, 0x13, 0x00, 0xd2, 0xff, 0xff, 0xff, 0xff,
   0xff, 0xa1, 0x2a, 0xfc, 0xdf, 0xff, 0xff, 0x7f, 0xab, 0x5e, 0xc8, 0xbf,
   0xf7, 0xff, 0xff, 0xff, 0xff, 0xff, 0xff, 0x0f, 0x00, 0x00, 0x00, 0xc8,
   0x6f, 0x55, 0x05, 0x00, 0xc0, 0xff, 0xf7, 0xff, 0xfe, 0x02, 0x00, 0xca,
   0xff, 0xff, 0xff, 0xff, 0xff, 0x43, 0xd5, 0xfc, 0xb5, 0xfd, 0xff, 0xbf,
   0xd6, 0x6b, 0xe7, 0xfe, 0xef, 0xff, 0xff, 0xff, 0xff, 0xff, 0xff, 0x3f,
   0x00, 0x00, 0x00, 0xc0, 0xa9, 0xda, 0x0e, 0x00, 0x40, 0xff, 0xff, 0xff,
   0xf1, 0x02, 0x06, 0xaa, 0xff, 0xff, 0xff, 0xff, 0xff, 0x53, 0xa9, 0xfc,
   0xbf, 0xdf, 0xfd, 0xef, 0xfa, 0x5e, 0xed, 0x5d, 0xff, 0xff, 0xff, 0xff,
   0xff, 0xff, 0xff, 0x3f, 0x00, 0x00, 0x00, 0x00, 0xdb, 0xaa, 0x02, 0x00,
   0xe0, 0xff, 0xfb, 0xff, 0x5a, 0xcd, 0x66, 0xe9, 0xff, 0xff, 0xff, 0xff,
   0xff, 0xa3, 0x2a, 0xff, 0xeb, 0xfe, 0xff, 0x5f, 0xd7, 0x7b, 0xcd, 0x6d,
   0xef, 0xff, 0xff, 0xff, 0xff, 0xff, 0xff, 0xff, 0x00, 0x00, 0x00, 0x00,
   0xab, 0x6d, 0x0d, 0x00, 0xf0, 0xf6, 0xf7, 0xa5, 0xb4, 0xb0, 0x8b, 0xd4,
   0xff, 0xff, 0xff, 0xff, 0xbf, 0x40, 0x55, 0xff, 0xbf, 0xfb, 0xfb, 0xff,
   0xf6, 0x02, 0xef, 0xf1, 0xe3, 0xff, 0xff, 0xff, 0xff, 0xff, 0xff, 0xff,
   0x00, 0x00, 0x00, 0x10, 0xb5, 0xaa, 0x05, 0x00, 0xc0, 0xff, 0xd6, 0x4d,
   0xa0, 0x48, 0x1f, 0xd9, 0xff, 0xff, 0xff, 0xff, 0xff, 0x4c, 0x55, 0xff,
   0x77, 0xdf, 0xff, 0x55, 0xad, 0x2a, 0x10, 0x05, 0xc4, 0xff, 0xff, 0xff,
   0xff, 0xff, 0xff, 0xff, 0x01, 0x00, 0x00, 0x00, 0x6d, 0xdb, 0x06, 0x00,
   0xe0, 0xea, 0xaa, 0x50, 0xd0, 0xa2, 0x35, 0xb6, 0xff, 0xff, 0xff, 0xff,
   0xff, 0x5d, 0x55, 0xff, 0xde, 0xbe, 0xf7, 0xdf, 0xb5, 0xa4, 0x22, 0xaa,
   0x94, 0xff, 0xff, 0xff, 0xff, 0xff, 0xff, 0xff, 0x03, 0x00, 0x00, 0x00,
   0x55, 0xb5, 0x0a, 0x40, 0xfc, 0xff, 0x85, 0x4a, 0x54, 0x81, 0x6f, 0xea,
   0xff, 0xff, 0xff, 0xff, 0xff, 0xac, 0x54, 0xff, 0x6b, 0xff, 0xff, 0x6f,
   0xdf, 0x08, 0x44, 0x44, 0x22, 0xff, 0xff, 0xff, 0xff, 0xff, 0xff, 0xff,
   0x07, 0x00, 0x00, 0xa0, 0xd5, 0xd6, 0x0d, 0x52, 0xef, 0xea, 0x53, 0x5a,
   0xaa, 0x12, 0x7e, 0x28, 0xff, 0xff, 0xff, 0xff, 0xff, 0x5e, 0x55, 0xff,
   0xdf, 0xff, 0xef, 0xdf, 0xfa, 0x51, 0x00, 0x00, 0xa0, 0xff, 0xff, 0xff,
   0xff, 0xff, 0xff, 0xff, 0x0f, 0x00, 0x00, 0x80, 0xb7, 0x5a, 0x9b, 0xaa,
   0x7c, 0x2b, 0x88, 0x56, 0xed, 0xc3, 0x1f, 0xe8, 0xff, 0xff, 0x7f, 0xfe,
   0xff, 0xdf, 0x6a, 0xfd, 0x6f, 0xbf, 0xff, 0x6d, 0xff, 0x00, 0x84, 0x84,
   0x04, 0xff, 0xff, 0xff, 0xff, 0xff, 0xff, 0xff, 0x1f, 0x00, 0x00, 0x90,
   0xaa, 0x55, 0x55, 0x55, 0xff, 0xd5, 0x61, 0x5b, 0xb6, 0x81, 0x0f, 0x14,
   0xfe, 0xff, 0x7f, 0xfe, 0xff, 0xff, 0xaa, 0x79, 0xee, 0xff, 0xfe, 0x6f,
   0x3d, 0x00, 0x08, 0x10, 0x80, 0xfe, 0xff, 0xff, 0xff, 0xff, 0xff, 0xff,
   0x3f, 0x00, 0x00, 0xa0, 0x6f, 0x5d, 0x55, 0x55, 0x7f, 0xa5, 0xc1, 0xb6,
   0xea, 0xff, 0x1f, 0x74, 0xfc, 0xff, 0x5f, 0xff, 0xff, 0xef, 0xfe, 0x00,
   0xbf, 0xff, 0xef, 0xbf, 0xfd, 0x21, 0x80, 0x00, 0x24, 0xfe, 0xff, 0xff,
   0xff, 0xff, 0xff, 0xff, 0x7f, 0x00, 0x00, 0xa0, 0xaa, 0xf5, 0x95, 0xaa,
   0x7f, 0xdd, 0x75, 0x55, 0xf1, 0xff, 0x3f, 0x08, 0xf8, 0xff, 0xff, 0xff,
   0xff, 0x3f, 0x00, 0x52, 0xfd, 0xfe, 0xff, 0x6f, 0x3b, 0x82, 0x00, 0x92,
   0x00, 0xff, 0xff, 0xff, 0xff, 0xff, 0xff, 0xff, 0xff, 0x00, 0x00, 0x50,
   0xaf, 0xfe, 0xaa, 0xea, 0x7f, 0xb0, 0xca, 0x55, 0xf0, 0xff, 0x3f, 0x18,
   0xf4, 0xff, 0xff, 0xff, 0xff, 0x03, 0x01, 0x00, 0xd7, 0xff, 0xff, 0xdf,
   0x3d, 0x00, 0x24, 0x20, 0x44, 0xfe, 0xff, 0xff, 0xff, 0xff, 0xff, 0xff,
   0xff, 0x03, 0x00, 0xa0, 0xba, 0xbf, 0x29, 0xf5, 0x7f, 0x5f, 0xa4, 0x21,
   0xf0, 0xff, 0x7f, 0x28, 0xfe, 0xff, 0xff, 0xff, 0xff, 0x10, 0x94, 0x44,
   0xbf, 0xff, 0xff, 0xbe, 0x37, 0xc8, 0x84, 0xa4, 0x88, 0xff, 0xff, 0xff,
   0xff, 0xff, 0xff, 0xff, 0xff, 0x07, 0x00, 0xa8, 0xee, 0x1f, 0x4a, 0xf5,
   0xbf, 0x48, 0x41, 0x40, 0xf0, 0xfd, 0x7f, 0x00, 0xfc, 0xff, 0xff, 0xff,
   0x7f, 0xa2, 0x00, 0x08, 0xef, 0xfd, 0xbf, 0x6f, 0x1f, 0x00, 0x29, 0x61,
   0x01, 0xff, 0xff, 0xff, 0xff, 0xff, 0xff, 0xff, 0xff, 0x0f, 0x00, 0x90,
   0xfa, 0x07, 0xa9, 0xfa, 0x7f, 0x97, 0x00, 0xe0, 0xf0, 0xff, 0x7f, 0x08,
   0xfe, 0xff, 0x87, 0xfe, 0x7f, 0x00, 0x52, 0x21, 0xbf, 0xff, 0xff, 0xdf,
   0x3f, 0x29, 0x25, 0x54, 0x95, 0xff, 0xff, 0xff, 0xff, 0xff, 0xff, 0xff,
   0xff, 0x1f, 0x00, 0x50, 0xff, 0x10, 0xab, 0x7e, 0xec, 0xac, 0xc0, 0xe1,
   0xfb, 0xf5, 0x7f, 0x00, 0xfe, 0xff, 0x07, 0xfc, 0x7f, 0x4a, 0x00, 0x04,
   0xd7, 0xff, 0xff, 0x6d, 0x3b, 0x80, 0x94, 0x30, 0x01, 0xff, 0xff, 0xff,
   0xff, 0xff, 0xff, 0xff, 0xff, 0x1f, 0x00, 0x5e, 0xef, 0x0a, 0xa8, 0xbf,
   0x5e, 0xf3, 0xc0, 0xa1, 0xfb, 0xff, 0x7f, 0x08, 0xfc, 0xff, 0x0f, 0xf9,
   0xff, 0x00, 0x25, 0x51, 0xbf, 0xff, 0xfb, 0x6f, 0x2f, 0x88, 0x0e, 0xe2,
   0x95, 0x7f, 0xaf, 0xff, 0xff, 0xff, 0xff, 0xdf, 0xff, 0x1f, 0x00, 0xd6,
   0x7e, 0x02, 0xac, 0x3f, 0x7b, 0x76, 0xc0, 0xb1, 0xfb, 0xf7, 0x7f, 0x0a,
   0xfc, 0xff, 0x27, 0xf8, 0x7f, 0x28, 0x20, 0x02, 0xef, 0xff, 0xff, 0xdf,
   0x1b, 0x02, 0xaf, 0xe8, 0x03, 0x5f, 0x5a, 0xff, 0xff, 0x9f, 0xdf, 0x27,
   0xdf, 0x2b, 0x00, 0xac, 0xbf, 0x54, 0xc8, 0x5f, 0xec, 0x7d, 0xc0, 0xff,
   0xfb, 0xfc, 0xff, 0x07, 0xfc, 0xff, 0x07, 0xf9, 0xff, 0x85, 0x8a, 0xd7,
   0xdf, 0xff, 0xbf, 0xff, 0x3f, 0x90, 0x1f, 0xf1, 0x2b, 0x07, 0x52, 0x97,
   0xde, 0x47, 0x95, 0x86, 0xf6, 0x04, 0x1c, 0xa8, 0xbf, 0x04, 0xd8, 0x4f,
   0xbd, 0x7d, 0xc0, 0xff, 0x7b, 0xea, 0x2f, 0x02, 0xfc, 0xff, 0x17, 0xfc,
   0xff, 0xef, 0xfe, 0xff, 0xff, 0xff, 0xff, 0xff, 0xfe, 0x01, 0x1f, 0xe4,
   0x83, 0x48, 0xaa, 0x48, 0x01, 0x24, 0xaa, 0x28, 0x94, 0x28, 0x56, 0x6e,
   0x3d, 0x09, 0xb4, 0x90, 0x4a, 0xfb, 0xc1, 0xe1, 0x3f, 0xde, 0xed, 0x00,
   0xfe, 0xff, 0x8f, 0xfc, 0xff, 0xff, 0xff, 0xff, 0xff, 0xff, 0xff, 0xfe,
   0xff, 0xaa, 0xaf, 0xf0, 0x17, 0x09, 0xaa, 0x52, 0xa7, 0x45, 0xa8, 0xa2,
   0x54, 0x05, 0x1e, 0xa0, 0x5b, 0x52, 0x70, 0x25, 0xd5, 0xfe, 0x81, 0xeb,
   0x39, 0xba, 0x1b, 0x00, 0xfe, 0xff, 0x1f, 0xfc, 0xff, 0xff, 0xff, 0xff,
   0xff, 0xff, 0xff, 0xff, 0x7f, 0x80, 0x0f, 0xf2, 0x43, 0x40, 0x54, 0xa5,
   0x8a, 0x02, 0x55, 0x08, 0xd5, 0xa8, 0x50, 0xa0, 0xaf, 0x84, 0x49, 0x55,
   0x0a, 0xff, 0x03, 0x82, 0x1e, 0xf4, 0x0e, 0x00, 0xfe, 0xff, 0xff, 0xff,
   0xff, 0xff, 0xff, 0xff, 0xff, 0xff, 0xff, 0x7f, 0x0f, 0x91, 0x5f, 0xf2,
   0x8b, 0x0a, 0x54, 0xa5, 0x12, 0x2d, 0xa8, 0x42, 0x54, 0x09, 0xd5, 0xc2,
   0xbd, 0x14, 0x58, 0x49, 0xd5, 0xff, 0x03, 0x8a, 0x32, 0xaf, 0x1b, 0x00,
   0xff, 0xff, 0x3f, 0xff, 0xff, 0xff, 0xff, 0xff, 0xff, 0xff, 0xbf, 0xfb,
   0x2d, 0x84, 0x0f, 0xf8, 0x27, 0x47, 0xaa, 0x54, 0xc3, 0x42, 0x55, 0x28,
   0xab, 0xa4, 0xb4, 0x00, 0x6b, 0x21, 0xa0, 0x52, 0xaa, 0x95, 0xc1, 0x55,
   0xbd, 0x75, 0x05, 0x00, 0xff, 0xff, 0x3f, 0xfe, 0xff, 0xff, 0xff, 0xff,
   0xf5, 0xff, 0xfd, 0xff, 0x3b, 0x90, 0x4f, 0xf1, 0x07, 0x07, 0xaa, 0x85,
   0x8a, 0x0b, 0xd0, 0x02, 0xac, 0x24, 0xe9, 0x07, 0x5f, 0x4b, 0x48, 0x95,
   0x0a, 0x14, 0x00, 0x55, 0x7f, 0xdf, 0x0f, 0x00, 0xff, 0xff, 0x2f, 0xfe,
   0xff, 0xff, 0xff, 0xff, 0xdf, 0xff, 0xff, 0xff, 0xaf, 0xc4, 0x2f, 0xf4,
   0xab, 0x27, 0xaa, 0xa8, 0x83, 0xa6, 0x96, 0xa8, 0xb4, 0x48, 0xbd, 0x17,
   0xbd, 0x2a, 0xa0, 0x52, 0x55, 0x00, 0x80, 0x2a, 0xa1, 0x69, 0x15, 0x00,
   0xff, 0xff, 0x8f, 0xfe, 0xff, 0xff, 0xff, 0xff, 0xfa, 0xff, 0xff, 0xff,
   0x3f, 0x88, 0x8f, 0xf8, 0x03, 0x07, 0xa8, 0x13, 0x90, 0x05, 0x28, 0x01,
   0xa8, 0x49, 0xea, 0x0f, 0xb7, 0x2a, 0x20, 0x2a, 0x09, 0x10, 0x00, 0x84,
   0xa6, 0x6f, 0x3f, 0x00, 0xff, 0xff, 0x1f, 0xfe, 0xff, 0xff, 0xff, 0xff,
   0xff, 0xff, 0xbf, 0xff, 0xad, 0xa0, 0x11, 0xa5, 0x2a, 0x26, 0x02, 0x0b,
   0x82, 0x2a, 0xa9, 0x55, 0xe9, 0x91, 0xbb, 0x1f, 0xdb, 0x52, 0x40, 0x55,
   0x12, 0x00, 0x80, 0x05, 0xe0, 0xda, 0x3a, 0x00, 0xff, 0xff, 0xff, 0xff,
   0xff, 0xff, 0xff, 0xff, 0xf5, 0xff, 0xfe, 0xff, 0x3f, 0x8a, 0xaa, 0xac,
   0x82, 0x44, 0x90, 0x56, 0x94, 0x27, 0xd2, 0x03, 0xf5, 0xbf, 0xea, 0xff,
   0xbf, 0x16, 0x40, 0xa5, 0x12, 0x00, 0x00, 0x04, 0xc0, 0xb6, 0x3d, 0x80,
   0xff, 0xff, 0xff, 0xff, 0xff, 0xff, 0xff, 0xff, 0xef, 0xff, 0xff, 0xff,
   0x3f, 0xe0, 0x2f, 0xfd, 0x2b, 0x05, 0x01, 0x02, 0x81, 0x3a, 0xc9, 0xb6,
   0xda, 0x6f, 0x9f, 0x7f, 0x5f, 0x15, 0x80, 0x94, 0x04, 0x00, 0x00, 0x00,
   0xa0, 0xed, 0x76, 0x80, 0xff, 0xff, 0xff, 0xff, 0xff, 0xff, 0xff, 0xff,
   0xfd, 0xef, 0xff, 0xff, 0xff, 0xf7, 0xcf, 0xff, 0xa6, 0x14, 0x24, 0x2f,
   0x94, 0x6e, 0xdf, 0xb7, 0xfa, 0xaf, 0x8a, 0xff, 0xda, 0x12, 0x40, 0x05,
   0x11, 0x00, 0x00, 0x46, 0xf0, 0xad, 0xff, 0xc0, 0xff, 0xff, 0xff, 0xff,
   0xff, 0xff, 0xff, 0xff, 0xeb, 0xff, 0xff, 0xff, 0xff, 0xff, 0x97, 0xff,
   0xfe, 0x4b, 0x81, 0x8f, 0xc0, 0xf5, 0xba, 0xd6, 0xf4, 0xff, 0x02, 0xff,
   0xbf, 0x25, 0x80, 0x4a, 0x01, 0x00, 0x28, 0x76, 0xa9, 0xdb, 0xfa, 0xc1,
   0xff, 0xff, 0xff, 0xff, 0xff, 0xff, 0xff, 0xff, 0xef, 0xdf, 0xfb, 0xff,
   0xff, 0xfb, 0xae, 0xff, 0xff, 0x07, 0x14, 0x1f, 0x49, 0x07, 0xea, 0xb7,
   0xf7, 0x7f, 0x00, 0xff, 0x7f, 0x4d, 0xc0, 0x42, 0x00, 0x88, 0xa9, 0xef,
   0x7d, 0xab, 0xff, 0xc1, 0xff, 0xff, 0xff, 0xff, 0xff, 0xff, 0xff, 0xff,
   0xbd, 0xff, 0xff, 0xeb, 0xff, 0xff, 0xff, 0xff, 0xff, 0x89, 0xa2, 0x3f,
   0xca, 0x85, 0x5a, 0x50, 0xdd, 0x7d, 0x20, 0xff, 0xdf, 0x53, 0x51, 0x81,
   0x4f, 0xf5, 0xd0, 0xbf, 0xd7, 0xde, 0xf5, 0xe1, 0xff, 0xff, 0xff, 0xff,
   0xff, 0xff, 0xff, 0xff, 0xf7, 0xdf, 0x7f, 0xbf, 0xbf, 0xf5, 0xff, 0xff,
   0x77, 0x93, 0x8b, 0x4f, 0x94, 0x17, 0xfa, 0xb2, 0xfb, 0x40, 0x47, 0xff,
   0xff, 0x56, 0x04, 0x20, 0xce, 0x7f, 0x58, 0xf7, 0xff, 0x55, 0xff, 0xe1,
   0xff, 0xff, 0xff, 0xff, 0xff, 0xff, 0xff, 0xff, 0xdd, 0xff, 0xff, 0xed,
   0xff, 0xfe, 0xff, 0xff, 0xdf, 0x84, 0xdf, 0x0f, 0x41, 0x07, 0xca, 0x88,
   0x6e, 0x2a, 0x0f, 0xff, 0xff, 0x4e, 0x0b, 0xc8, 0x65, 0xfd, 0xd0, 0xaa,
   0xaf, 0xde, 0x7e, 0xf0, 0xff, 0xff, 0xff, 0xff, 0xff, 0xff, 0xff, 0xff,
   0xdb, 0xdf, 0xf7, 0x7f, 0xb5, 0xff, 0xff, 0xff, 0xb7, 0xeb, 0xff, 0xb7,
   0x83, 0x4e, 0xda, 0x91, 0x7d, 0x20, 0xa0, 0xff, 0xff, 0x7f, 0x4d, 0x95,
   0xef, 0xf5, 0xa8, 0xd7, 0xef, 0xda, 0xff, 0xf0, 0xff, 0xff, 0xff, 0xff,
   0xff, 0xff, 0xff, 0xff, 0x7f, 0xfb, 0x7f, 0xd5, 0xdf, 0xfe, 0xff, 0xff,
   0xdf, 0xf8, 0xff, 0xdf, 0x97, 0x03, 0xfb, 0xc5, 0x77, 0x45, 0x0c, 0xff,
   0x7d, 0x3f, 0x9d, 0xf6, 0xdf, 0xff, 0x51, 0xbd, 0xbf, 0x7f, 0xff, 0xf8,
   0xff, 0xff, 0xff, 0xff, 0xff, 0xff, 0xff, 0xff, 0xea, 0xff, 0xff, 0xff,
   0xfd, 0xff, 0xff, 0xff, 0xbf, 0xf7, 0xff, 0xff, 0x07, 0x2f, 0xff, 0x91,
   0x7e, 0x14, 0x60, 0xfe, 0xff, 0x7f, 0xfd, 0x44, 0xbb, 0x5d, 0xb2, 0xeb,
   0x63, 0xed, 0xff, 0xff, 0xff, 0xff, 0xff, 0xff, 0xff, 0xff, 0xff, 0xff,
   0xbf, 0xff, 0xff, 0xad, 0xf7, 0xff, 0xff, 0xff, 0xdf, 0xf2, 0xff, 0xff,
   0x17, 0x87, 0xff, 0xe5, 0x77, 0x21, 0x84, 0xff, 0x7f, 0xbf, 0xfa, 0x55,
   0xef, 0xb7, 0xa1, 0xdf, 0xdb, 0xde, 0xfe, 0xff, 0xff, 0xff, 0xff, 0xff,
   0xff, 0xff, 0xff, 0xff, 0xf6, 0xff, 0xff, 0xfd, 0xfe, 0xff, 0xff, 0xff,
   0xbf, 0xfe, 0xff, 0xff, 0x47, 0x86, 0xff, 0x45, 0x7f, 0x44, 0xfc, 0xff,
   0xff, 0xbf, 0xf8, 0x16, 0xbd, 0x7e, 0x53, 0xad, 0xdb, 0xea, 0xff, 0xff,
   0xff, 0xff, 0xff, 0xff, 0xff, 0xff, 0xff, 0xff, 0x5b, 0xff, 0xff, 0xef,
   0xff, 0xff, 0xff, 0xff, 0xef, 0xe1, 0xff, 0x9f, 0x17, 0x17, 0xff, 0x91,
   0x77, 0x69, 0x95, 0xff, 0xbd, 0xd6, 0xfd, 0x55, 0xf7, 0xd7, 0xe2, 0xd7,
   0x6f, 0xdf, 0xff, 0xff, 0xff, 0xff, 0xff, 0xff, 0xff, 0xff, 0xff, 0xff,
   0xff, 0xff, 0xff, 0xbf, 0xf6, 0xff, 0xff, 0xff, 0x5f, 0xfb, 0xff, 0xbf,
   0x07, 0xa3, 0xff, 0xa5, 0x7e, 0xa1, 0xfc, 0xff, 0xff, 0x5a, 0xbd, 0x55,
   0xef, 0xfe, 0x42, 0x57, 0x5d, 0xf5, 0xff, 0xff, 0xff, 0xff, 0xff, 0xff,
   0xff, 0xff, 0xff, 0xff, 0xed, 0xff, 0xff, 0xef, 0xff, 0xff, 0xff, 0xff,
   0xdf, 0xe4, 0xff, 0xbf, 0x11, 0x83, 0xff, 0xc2, 0x77, 0x64, 0xe7, 0xff,
   0x7f, 0xb5, 0x7f, 0x4b, 0xef, 0xef, 0x6b, 0x57, 0xf7, 0xde, 0xff, 0xff,
   0xff, 0xff, 0xff, 0xff, 0xff, 0xff, 0xff, 0xff, 0xff, 0xff, 0xff, 0xff,
   0xf6, 0xff, 0xff, 0xff, 0xdf, 0xf9, 0xff, 0xdf, 0xa7, 0x16, 0xff, 0xc9,
   0xff, 0x45, 0xfd, 0xff, 0xff, 0xaa, 0xfc, 0x96, 0x5c, 0xbd, 0x52, 0xd7,
   0xae, 0xbb, 0xff, 0xff, 0xff, 0xff, 0xff, 0xff, 0xff, 0xff, 0xff, 0xff,
   0xef, 0xff, 0xff, 0xdf, 0xff, 0xff, 0xff, 0xff, 0x7f, 0xf3, 0xff, 0xbf,
   0x05, 0x82, 0xfe, 0xd2, 0xf6, 0x48, 0xb5, 0xff, 0xff, 0x6d, 0xf9, 0x24,
   0xff, 0x77, 0x51, 0xb7, 0xaa, 0x6a, 0xff, 0xff, 0xff, 0xff, 0xff, 0xff,
   0xff, 0xff, 0xff, 0xff, 0xff, 0xff, 0xff, 0xff, 0xfa, 0xff, 0xff, 0xff,
   0xdd, 0xf5, 0xff, 0xff, 0x4b, 0x90, 0xc7, 0x04, 0x6c, 0x92, 0xea, 0xff,
   0xff, 0x95, 0xff, 0x4d, 0xf6, 0xde, 0x53, 0xcf, 0xb6, 0x6e, 0xff, 0xff,
   0xff, 0xff, 0xff, 0xff, 0xff, 0xff, 0xff, 0xff, 0xff, 0xff, 0xff, 0xff,
   0xff, 0xff, 0xff, 0xff, 0xf7, 0xf5, 0xff, 0xff, 0x13, 0x05, 0x54, 0xa9,
   0x10, 0xc9, 0xf5, 0xff, 0xff, 0x95, 0xff, 0x15, 0xdf, 0xbb, 0x52, 0xab,
   0x6d, 0xdb, 0xfe, 0xff, 0xff, 0xff, 0xff, 0xff, 0xff, 0xff, 0xff, 0xff,
   0xf7, 0xff, 0xff, 0xff, 0xff, 0xff, 0xff, 0xff, 0xff, 0xf1, 0x8f, 0xdf,
   0x27, 0x53, 0x41, 0x02, 0x45, 0x48, 0xad, 0xff, 0xdf, 0x0a, 0xfc, 0xa7,
   0x7f, 0xf7, 0x52, 0x2e, 0xdb, 0xb6, 0xff, 0xff, 0xff, 0xff, 0xff, 0xff,
   0xff, 0xff, 0xff, 0xff, 0xff, 0xff, 0xff, 0xff, 0xff, 0xff, 0xff, 0xff,
   0xff, 0xff, 0xaf, 0xff, 0x8f, 0x07, 0xd4, 0x54, 0x10, 0xe5, 0xff, 0xae,
   0xf7, 0x0b, 0x5c, 0x50, 0xf6, 0x01, 0x51, 0xc1, 0xae, 0x6d, 0xfd, 0xff,
   0xff, 0xff, 0xff, 0xff, 0xff, 0xff, 0xff, 0xff, 0xf7, 0xff, 0xff, 0xff,
   0xff, 0xff, 0xff, 0x7f, 0xff, 0xff, 0xdf, 0xff, 0x17, 0x5e, 0x31, 0xdd,
   0x45, 0xfe, 0x93, 0x5a, 0xad, 0x1e, 0x3c, 0x10, 0xbe, 0x03, 0x90, 0xc1,
   0xbf, 0x5d, 0xff, 0xff, 0xff, 0xff, 0xff, 0xff, 0xff, 0xff, 0xff, 0xff,
   0xff, 0xff, 0xff, 0xff, 0xff, 0xff, 0xff, 0xff, 0xff, 0xff, 0xfe, 0xff,
   0xdf, 0x9f, 0xf4, 0xff, 0xff, 0x0f, 0x55, 0x55, 0x75, 0xb5, 0x7a, 0xbe,
   0x5c, 0x01, 0x00, 0xa1, 0xd1, 0xf6, 0xfe, 0xff, 0xff, 0xff, 0xff, 0xff,
   0xff, 0xff, 0xff, 0xff, 0xff, 0xff, 0xff, 0xff, 0xff, 0xff, 0xff, 0xff,
   0xff, 0xff, 0xff, 0xff, 0xff, 0xff, 0xff, 0xff, 0xff, 0xbb, 0xaa, 0xaa,
   0xcd, 0xaa, 0xae, 0xd2, 0x7c, 0x00, 0x00, 0x00, 0xd0, 0xde, 0xfe, 0xff,
   0xff, 0xff, 0xff, 0xff, 0xff, 0xff, 0xff, 0xff, 0xff, 0xff, 0xff, 0xff,
   0xff, 0xff, 0xff, 0xff, 0xff, 0xff, 0xff, 0xff, 0xff, 0xff, 0xbf, 0xfd,
   0xff, 0xaf, 0x52, 0x55, 0xbb, 0xb5, 0xa9, 0xae, 0xf9, 0x03, 0x00, 0x00,
   0xed, 0xb5, 0xfd, 0xff, 0xff, 0xff, 0xff, 0xff, 0xff, 0xff, 0xff, 0xff,
   0xff, 0xff, 0xff, 0xff, 0xff, 0xff, 0xff, 0xff, 0xff, 0xff, 0xff, 0xff,
   0xfb, 0xd7, 0xf6, 0xab, 0x7f, 0x5b, 0x95, 0x54, 0xa5, 0x56, 0xab, 0x6a,
   0x2b, 0x19, 0x0e, 0x00, 0x10, 0xef, 0xfe, 0xff, 0xff, 0xff, 0xff, 0xff,
   0xff, 0xff, 0xff, 0xff, 0xff, 0xff, 0xff, 0xff, 0xff, 0xff, 0xff, 0xff,
   0xff, 0xff, 0xff, 0xbf, 0xee, 0xff, 0xaf, 0xfe, 0xea, 0xaa, 0x54, 0x55,
   0x5d, 0xb5, 0xb6, 0xda, 0xea, 0xb6, 0xb5, 0x02, 0x50, 0x3f, 0xfd, 0xff,
   0xff, 0xff, 0xff, 0xff, 0xff, 0xff, 0xff, 0xff, 0xff, 0xff, 0xff, 0xff,
   0xff, 0xff, 0xff, 0xff, 0xff, 0xff, 0xff, 0xff, 0xff, 0x6f, 0xfd, 0xab,
   0xae, 0x57, 0x25, 0xa9, 0x6a, 0xab, 0x6a, 0xab, 0xad, 0x6a, 0xad, 0x6b,
   0xf0, 0xf5, 0xfe, 0xff, 0xff, 0xff, 0xff, 0xff, 0xff, 0xff, 0xff, 0xff,
   0xff, 0xff, 0xff, 0xff, 0xff, 0xff, 0xff, 0xed, 0xff, 0xff, 0xd7, 0x5f,
   0xed, 0xbf, 0xd7, 0xfe, 0x5d, 0x55, 0xaa, 0xaa, 0x55, 0x6d, 0x55, 0xad,
   0xea, 0xd6, 0x7a, 0xad, 0xf0, 0x5f, 0xfe, 0xff, 0xff, 0xff, 0xff, 0xff,
   0xff, 0xff, 0xff, 0xff, 0xff, 0xff, 0xff, 0xff, 0xff, 0x6f, 0xab, 0xbd,
   0xfe, 0xff, 0xff, 0xff, 0xdd, 0xf6, 0xbd, 0xab, 0x6a, 0xad, 0xaa, 0x2a,
   0x55, 0x55, 0xad, 0xb5, 0x96, 0x5d, 0xcb, 0xfd, 0x2a, 0xfd, 0xff, 0xff,
   0xff, 0xff, 0xff, 0xff, 0xff, 0xff, 0xff, 0xff, 0xff, 0xff, 0xff, 0xff,
   0xff, 0xff, 0xfd, 0xd7, 0xfb, 0x7f, 0xad, 0xaf, 0x6b, 0x5b, 0x6b, 0xb5,
   0xb5, 0x55, 0xa9, 0xea, 0xb6, 0x6a, 0x55, 0xd5, 0x5a, 0xeb, 0xb6, 0xab,
   0xae, 0xfe, 0xff, 0xff, 0xff, 0xff, 0xff, 0xff, 0xff, 0xff, 0xff, 0xff,
   0xff, 0xff, 0xff, 0xff, 0xdf, 0xbb, 0x57, 0x7d, 0xdf, 0xef, 0xfb, 0x7f,
   0xef, 0x6e, 0xdb, 0xee, 0x56, 0x55, 0x55, 0x92, 0xaa, 0xad, 0xb5, 0xaa,
   0xd5, 0x5a, 0xb5, 0xfe, 0xba, 0xff, 0xff, 0xff, 0xff, 0xff, 0xff, 0xff,
   0xff, 0xff, 0xff, 0xff, 0xff, 0xff, 0xff, 0xff, 0xfb, 0xef, 0xfe, 0xd7,
   0xba, 0xba, 0xae, 0xaf, 0xdd, 0xb5, 0xb6, 0x55, 0x6d, 0x2b, 0x55, 0x55,
   0x55, 0x55, 0xd5, 0x56, 0xad, 0xd6, 0xef, 0xfb, 0x40, 0xfe, 0xff, 0xff,
   0xff, 0xff, 0xff, 0xff, 0xff, 0xff, 0xff, 0xff, 0xff, 0xff, 0xff, 0xff,
   0xef, 0xff, 0x57, 0xfd, 0xf7, 0xef, 0xfb, 0xbf, 0xb5, 0xb6, 0x6d, 0xdb,
   0xaa, 0x56, 0x49, 0x69, 0xb5, 0x6a, 0x55, 0xb5, 0xda, 0x9a, 0xff, 0xff,
   0xa1, 0xff, 0xff, 0xff, 0xff, 0xff, 0xff, 0xff, 0xff, 0xff, 0xff, 0xff,
   0xff, 0xff, 0xff, 0x77, 0xfb, 0xaf, 0xfd, 0x57, 0xad, 0xba, 0xae, 0x7f,
   0xdb, 0x6d, 0xd5, 0xb6, 0x6e, 0x55, 0x55, 0x52, 0xab, 0x56, 0xab, 0xd5,
   0xb5, 0xb5, 0xff, 0xff, 0x81, 0xff, 0xff, 0xff, 0xff, 0xff, 0xff, 0xff,
   0xff, 0xff, 0xff, 0xff, 0xff, 0xff, 0xff, 0xf7, 0xff, 0xff, 0x5b, 0xfd,
   0xbd, 0xeb, 0xfb, 0xaf, 0x56, 0xab, 0x5d, 0x55, 0xd9, 0xaa, 0xaa, 0x56,
   0x55, 0x55, 0x6d, 0x2d, 0x24, 0xf2, 0xff, 0xff, 0xe3, 0xff, 0xff, 0xff,
   0xff, 0xff, 0xff, 0xff, 0xff, 0xff, 0xff, 0xff, 0xff, 0xff, 0xff, 0xff,
   0xf7, 0xbf, 0xef, 0xab, 0x77, 0x5d, 0xed, 0xbf, 0x5d, 0x6d, 0xab, 0x5a,
   0xa5, 0x55, 0xa5, 0xb4, 0x5a, 0xb5, 0xaa, 0xaa, 0xaa, 0xf0, 0xff, 0xff,
   0xc3, 0xff, 0xff, 0xff, 0xff, 0xff, 0xff, 0xff, 0xff, 0xff, 0xff, 0xff,
   0xff, 0xff, 0xff, 0xff, 0xff, 0xff, 0xbd, 0xfe, 0xd6, 0xf5, 0xad, 0x6f,
   0x6b, 0x55, 0x6d, 0x55, 0x55, 0x57, 0xaa, 0x4a, 0x55, 0x55, 0xa9, 0xaa,
   0x88, 0xec, 0xff, 0xff, 0xd1, 0xff, 0xff, 0xff, 0xff, 0xff, 0xff, 0xff,
   0xff, 0xff, 0xff, 0xff, 0xff, 0xff, 0xff, 0xff, 0xfe, 0xbf, 0xf7, 0xd5,
   0xbf, 0xae, 0x5b, 0xdf, 0xb6, 0x6d, 0xab, 0xb6, 0xae, 0xaa, 0x54, 0xb5,
   0xaa, 0xaa, 0x92, 0x2a, 0x55, 0x55, 0x9d, 0x31, 0x60, 0xff, 0xff, 0xff,
   0xff, 0xff, 0xff, 0xff, 0xff, 0xff, 0xff, 0xff, 0xff, 0xff, 0xff, 0xff,
   0xff, 0xff, 0xae, 0xbf, 0xea, 0xaa, 0xf6, 0xbf, 0xad, 0xaa, 0xae, 0x6d,
   0x55, 0xad, 0x95, 0xa4, 0x5a, 0x55, 0xa5, 0xaa, 0x54, 0x5a, 0xb3, 0x3f,
   0x00, 0xfe, 0xff, 0xff, 0xff, 0xff, 0xff, 0xff, 0xff, 0xff, 0xff, 0xff,
   0xff, 0xff, 0xff, 0xff, 0xff, 0xdf, 0x7b, 0xf5, 0xaf, 0xbd, 0xcd, 0x5f,
   0xb5, 0x55, 0xb9, 0x56, 0x55, 0x75, 0xb5, 0xaa, 0x56, 0x55, 0x55, 0x55,
   0x21, 0x6d, 0x2d, 0x5d, 0x05, 0xfe, 0xff, 0xff, 0xff, 0xff, 0xff, 0xff,
   0xff, 0xff, 0xff, 0xff, 0xff, 0xff, 0xff, 0xff, 0xff, 0x7b, 0xdf, 0xbf,
   0xfd, 0x75, 0xdb, 0xaf, 0x56, 0x5b, 0xa5, 0x7d, 0xad, 0x4a, 0x55, 0x55,
   0x55, 0x55, 0x55, 0xab, 0x26, 0x5d, 0xab, 0xda, 0x02, 0xff, 0xff, 0xff,
   0xff, 0xff, 0xff, 0xff, 0xff, 0xff, 0xff, 0xff, 0xff, 0xff, 0xff, 0xff,
   0xff, 0xef, 0xb6, 0xea, 0x57, 0xdb, 0x56, 0xaf, 0xba, 0xea, 0x7d, 0x4b,
   0xb5, 0xba, 0xaa, 0xaa, 0x5a, 0xd5, 0xaa, 0x0a, 0x49, 0xaa, 0xca, 0x6a,
   0x42, 0xf6, 0xff, 0xff, 0xff, 0xff, 0xff, 0xff, 0xff, 0xff, 0xff, 0xff,
   0xff, 0xff, 0xff, 0xff, 0xff, 0xaf, 0xb7, 0xbf, 0xb6, 0xff, 0xb6, 0xaf,
   0x6a, 0x15, 0xa5, 0xaa, 0xaa, 0x6a, 0x75, 0xb5, 0xaa, 0xad, 0xb5, 0x55,
   0x4a, 0xaa, 0x9d, 0xdf, 0x16, 0xf4, 0xff, 0xff, 0xff, 0xff, 0xff, 0xff,
   0xff, 0xff, 0xff, 0xff, 0xff, 0xff, 0xff, 0xff, 0xff, 0xbf, 0x6d, 0xed,
   0x5b, 0xff, 0xd5, 0xdf, 0xd6, 0xea, 0x5a, 0xd5, 0x56, 0x95, 0x4a, 0x45,
   0x57, 0xdb, 0x6a, 0xab, 0x24, 0xd5, 0xbf, 0xbe, 0x35, 0xf8, 0xff, 0xff,
   0xff, 0xff, 0xff, 0xff, 0xff, 0xff, 0xff, 0xff, 0xff, 0xff, 0xff, 0xff,
   0xff, 0xf7, 0xed, 0x7d, 0x5f, 0x1e, 0x95, 0xaf, 0x5d, 0xab, 0x52, 0x95,
   0x6d, 0x21, 0xd5, 0xa6, 0x2c, 0x15, 0x0a, 0x00, 0x49, 0x94, 0x77, 0x55,
   0x2b, 0xf2, 0xff, 0xff, 0xff, 0xff, 0xff, 0xff, 0xff, 0xff, 0xff, 0xff,
   0xff, 0xff, 0xff, 0xff, 0xd7, 0xdf, 0xb6, 0xd7, 0x59, 0x79, 0xab, 0x5e,
   0xab, 0xda, 0xaa, 0xaa, 0xd6, 0x4a, 0xaa, 0x06, 0x00, 0x00, 0x14, 0x68,
   0x95, 0xaa, 0xde, 0xbe, 0x9a, 0xf4, 0xff, 0xff, 0xff, 0xff, 0xff, 0xff,
   0xff, 0xff, 0xff, 0xff, 0xff, 0xff, 0xff, 0x7f, 0x7f, 0xdf, 0xbd, 0x7e,
   0xb7, 0x4b, 0x6d, 0x5f, 0xb5, 0x45, 0xaa, 0xaa, 0x95, 0x94, 0x54, 0x09,
   0x00, 0x40, 0x00, 0x80, 0x24, 0xd4, 0x9f, 0xaa, 0xb2, 0xfa, 0xff, 0xff,
   0xff, 0xff, 0xff, 0xff, 0xff, 0xff, 0xff, 0xff, 0xff, 0xff, 0xff, 0xfb,
   0xdb, 0x75, 0xeb, 0xeb, 0xaa, 0xb6, 0x5a, 0xdf, 0x56, 0x55, 0xb5, 0xaa,
   0xe8, 0x92, 0x52, 0x05, 0x00, 0x00, 0x00, 0x20, 0x55, 0xd5, 0xff, 0xaa,
   0x4a, 0xf5, 0xff, 0xff, 0xff, 0xff, 0xff, 0xff, 0xff, 0xff, 0xff, 0xff,
   0xff, 0xff, 0xff, 0x7f, 0x7f, 0x6f, 0xb7, 0xde, 0xaa, 0xd4, 0xd6, 0x57,
   0xbd, 0x56, 0x65, 0xa5, 0x02, 0xb2, 0xa6, 0x14, 0x00, 0x00, 0x00, 0xa0,
   0x92, 0xaa, 0x7f, 0xad, 0x2a, 0xf9, 0xff, 0xff, 0xff, 0xff, 0xff, 0xff,
   0xff, 0xff, 0xff, 0xff, 0xff, 0xff, 0xbf, 0xd7, 0xff, 0xfd, 0xed, 0x7b,
   0xb5, 0xaa, 0xad, 0x6e, 0xa5, 0xaa, 0xaa, 0xaa, 0xd5, 0x54, 0x49, 0xa5,
   0x02, 0x00, 0x00, 0x00, 0x41, 0xd2, 0x5f, 0x55, 0x55, 0xd4, 0xff, 0xff,
   0xff, 0xff, 0xff, 0xff, 0xff, 0xff, 0xff, 0xff, 0xff, 0xff, 0xff, 0x7f,
   0x6d, 0xab, 0xb5, 0xee, 0x95, 0xb4, 0xba, 0xad, 0xbd, 0xaa, 0x92, 0x6a,
   0x95, 0x52, 0x2b, 0xa9, 0x02, 0x00, 0x00, 0x00, 0x00, 0x15, 0x8f, 0xaa,
   0x4a, 0xa1, 0xf5, 0xff, 0xff, 0xdb, 0xff, 0xff, 0xff, 0xff, 0xff, 0xff,
   0xff, 0xff, 0xff, 0xee, 0xff, 0xfa, 0xff, 0xbb, 0x2b, 0xa9, 0x55, 0x5b,
   0x6b, 0x15, 0x25, 0x59, 0x55, 0x55, 0x55, 0x6a, 0x05, 0x00, 0x00, 0x00,
   0x00, 0x24, 0xa0, 0xaa, 0x2a, 0xf4, 0xff, 0xff, 0xdf, 0x7e, 0xff, 0xff,
   0xff, 0xff, 0xff, 0xff, 0xfd, 0xff, 0xdb, 0xff, 0x6e, 0x43, 0xab, 0xf6,
   0x57, 0xab, 0x7d, 0xbb, 0xaa, 0x2a, 0x55, 0x60, 0xab, 0x64, 0x44, 0xa5,
   0x2d, 0x00, 0x00, 0x00, 0xa8, 0x28, 0x80, 0xaa, 0xa4, 0x60, 0xef, 0xee,
   0xfd, 0xdb, 0xff, 0xff, 0xff, 0xff, 0xff, 0xff, 0xff, 0xff, 0xff, 0xfd,
   0xff, 0x84, 0x77, 0x7b, 0x57, 0x02, 0x00, 0x60, 0x0f, 0x2b, 0x50, 0xa1,
   0x55, 0x08, 0x00, 0x2a, 0x92, 0x00, 0x88, 0x00, 0x00, 0x42, 0xa1, 0x56,
   0x95, 0xe2, 0xfd, 0xff, 0xff, 0x7f, 0xff, 0xff, 0xff, 0xff, 0xff, 0xff,
   0xff, 0xff, 0xbf, 0xef, 0xbd, 0x0a, 0x06, 0x80, 0x01, 0x00, 0x00, 0x00,
   0x05, 0xa0, 0x00, 0x00, 0x10, 0x00, 0x00, 0x00, 0x20, 0x00, 0xb4, 0x02,
   0x00, 0x16, 0x01, 0x55, 0x55, 0xa4, 0xdf, 0xbf, 0xfb, 0x7f, 0xff, 0xff,
   0xff, 0xff, 0xff, 0xff, 0xff, 0x7f, 0xff, 0x7f, 0x0f, 0x04, 0x00, 0x00,
   0x00, 0x00, 0x00, 0x00, 0x04, 0x00, 0x00, 0x00, 0x00, 0x00, 0x00, 0x00,
   0x00, 0x00, 0x40, 0x4d, 0x00, 0x40, 0xaa, 0xaa, 0xa4, 0xe0, 0xfa, 0xf6,
   0xff, 0xf7, 0xff, 0xff, 0xff, 0xff, 0xff, 0xff, 0xff, 0xff, 0xf7, 0xfd,
   0x0f, 0x00, 0x00, 0x00, 0x00, 0x00, 0x00, 0x00, 0x00, 0x00, 0x00, 0x00,
   0x00, 0x00, 0x00, 0x00, 0x00, 0x00, 0xa0, 0x75, 0x00, 0x80, 0x40, 0x29,
   0x15, 0xd5, 0xff, 0xff, 0xdf, 0xff, 0xff, 0xff, 0xff, 0xff, 0xff, 0xff,
   0xff, 0xff, 0xff, 0xef, 0x05, 0x00, 0x00, 0x00, 0x00, 0x00, 0x00, 0x00,
   0x20, 0x00, 0x00, 0x00, 0x00, 0x00, 0x00, 0x00, 0x00, 0x00, 0x00, 0xad,
   0x02, 0x00, 0x0a, 0xf0, 0x4a, 0x60, 0xdb, 0xbf, 0xff, 0xdf, 0xff, 0xff,
   0xff, 0xff, 0xff, 0xff, 0xff, 0xff, 0xbf, 0xff, 0x07, 0x00, 0x00, 0x00,
   0x00, 0x00, 0x00, 0x00, 0x20, 0x00, 0x00, 0x00, 0x00, 0x00, 0x00, 0x00,
   0x00, 0x00, 0x00, 0x68, 0x55, 0x01, 0x00, 0xcc, 0x0d, 0xe8, 0xff, 0xff,
   0xff, 0xff, 0xff, 0xff, 0xff, 0xff, 0xff, 0xff, 0xff, 0xff, 0xff, 0xdd,
   0x15, 0x00, 0x00, 0x00, 0x00, 0x00, 0x00, 0x00, 0x40, 0x01, 0x00, 0x00,
   0x00, 0x00, 0x00, 0x00, 0x00, 0x00, 0x00, 0x40, 0x55, 0x05, 0x00, 0xb0,
   0x13, 0xb8, 0xfe, 0xfe, 0xff, 0x7f, 0xff, 0xff, 0xff, 0xff, 0xff, 0xff,
   0xff, 0xff, 0xff, 0xbf, 0x07, 0x00, 0x00, 0x00, 0x00, 0x00, 0x00, 0x00,
   0x00, 0x00, 0x00, 0x00, 0x00, 0x00, 0x00, 0x00, 0x00, 0x00, 0x00, 0x40,
   0xb5, 0x05, 0x00, 0xb6, 0x16, 0xe0, 0xf7, 0xff, 0xff, 0xff, 0xff, 0xff,
   0xff, 0xff, 0xff, 0xff, 0xff, 0xff, 0xff, 0xff, 0x0a, 0x00, 0x00, 0x00,
   0x00, 0x00, 0x00, 0x00, 0x00, 0x00, 0x00, 0x00, 0x00, 0x00, 0x00, 0x00,
   0x00, 0x00, 0x00, 0x00, 0x54, 0xb5, 0x00, 0xd8, 0xa9, 0xd4, 0xfd, 0xff,
   0xff, 0xff, 0xff, 0xff, 0xff, 0xff, 0xff, 0xff, 0xff, 0xff, 0x6f, 0xfb,
   0x03, 0x00, 0x00, 0x00, 0x00, 0x00, 0x00, 0x00, 0x00, 0x00, 0x00, 0x00,
   0x00, 0x00, 0x00, 0x00, 0x00, 0x00, 0x00, 0x00, 0xe0, 0x4a, 0x05, 0x34,
   0x0a, 0xf9, 0xff, 0xff, 0xff, 0xff, 0xff, 0xff, 0xff, 0xff, 0xff, 0xff,
   0xff, 0xfb, 0xff, 0xff, 0x03, 0x00, 0x00, 0x00, 0x00, 0x00, 0x00, 0x00,
   0x00, 0x00, 0x00, 0x00, 0x00, 0x00, 0x00, 0x00, 0x00, 0x00, 0x00, 0x00,
   0x00, 0xaa, 0x76, 0x2c, 0x00, 0xfa, 0xff, 0xff, 0xff, 0xff, 0xff, 0xff,
   0xff, 0xff, 0xff, 0xff, 0xff, 0xff, 0xfd, 0xde, 0x03, 0x00, 0x00, 0x00,
   0x00, 0x00, 0x00, 0x00, 0x00, 0x00, 0x01, 0x00, 0x00, 0x00, 0x00, 0x00,
   0x00, 0x00, 0x00, 0x00, 0x00, 0x50, 0xed, 0x2b, 0x00, 0xf8, 0xff, 0xff,
   0xff, 0xff, 0xff, 0xff, 0xff, 0xff, 0xff, 0xff, 0xff, 0xff, 0xff, 0x77,
   0x08, 0x00, 0x00, 0x00, 0x00, 0x00, 0x00, 0x00, 0x00, 0x00, 0x00, 0x00,
   0x00, 0x00, 0x00, 0x00, 0x00, 0x00, 0x00, 0x00, 0x00, 0x00, 0x7b, 0x7d,
   0x00, 0xe0, 0xff, 0xff, 0xff, 0xff, 0xff, 0xff, 0xff, 0xff, 0xff, 0xff,
   0xff, 0xff, 0xbf, 0xff, 0x09, 0x00, 0x00, 0x00, 0x00, 0x00, 0x00, 0x00,
   0x00, 0x00, 0x0c, 0x00, 0x00, 0x00, 0x00, 0x00, 0x00, 0x00, 0x00, 0x00,
   0x00, 0x00, 0xea, 0x57, 0x00, 0xe0, 0xff, 0xff, 0xff, 0xff, 0xff, 0xff,
   0xff, 0xff, 0xff, 0xff, 0xff, 0xff, 0xff, 0xdf, 0x01, 0x00, 0x00, 0x00,
   0x00, 0x00, 0x00, 0x00, 0x00, 0x00, 0x08, 0x00, 0x00, 0x00, 0x00, 0x00,
   0x00, 0x00, 0x00, 0x00, 0x00, 0x00, 0xb0, 0x3a, 0x0b, 0xe0, 0xff, 0xff,
   0xff, 0xff, 0xff, 0xff, 0xff, 0xff, 0xff, 0xff, 0xff, 0xff, 0xff, 0xff,
   0x03, 0x00, 0x00, 0x00, 0x00, 0x00, 0x00, 0x00, 0x00, 0x00, 0x00, 0x00,
   0x00, 0x00, 0x00, 0x00, 0x00, 0x00, 0x00, 0x00, 0x00, 0x00, 0x80, 0x6e,
   0x25, 0xf1, 0xff, 0xff, 0xff, 0xff, 0xff, 0xff, 0xff, 0xff, 0xff, 0xff,
   0xff, 0xff, 0xff, 0xff, 0x03, 0x00, 0x00, 0x00, 0x00, 0x00, 0x00, 0x00,
   0x00, 0x00, 0xe0, 0x01, 0x00, 0x00, 0x00, 0x00, 0x00, 0x00, 0x00, 0x00,
   0x00, 0x00, 0x80, 0x35, 0xd5, 0xff, 0xff, 0xff, 0xff, 0xff, 0xff, 0xff,
   0xff, 0xff, 0xff, 0xff, 0xff, 0xff, 0xfd, 0xff, 0x00, 0x00, 0x00, 0x00,
   0x00, 0x00, 0x00, 0x00, 0x00, 0x00, 0xc0, 0x01, 0x00, 0x00, 0x00, 0x00,
   0x00, 0x00, 0x00, 0x00, 0x00, 0x00, 0x00, 0x2a, 0xd5, 0xff, 0xff, 0xff,
   0xff, 0xff, 0xff, 0xff, 0xff, 0xff, 0xff, 0xff };
